<svg xmlns="http://www.w3.org/2000/svg" viewBox="0 0 1200 420" width="1200" height="420" role="img" xmlns:c2pa="http://c2pa.org/manifest"><metadata><c2pa:manifest>AAAWgmp1bWIAAAAeanVtZGMycGEAEQAQgAAAqgA4m3EDYzJwYQAAABZcanVtYgAAAEdqdW1kYzJtYQARABCAAACqADibcQN1cm46YzJwYTozYzBkNDcyMC02M2JjLTQ3MjYtYTYxYy1mYzllNDZlNWVhY2YAAAADl2p1bWIAAAApanVtZGMyYXMAEQAQgAAAqgA4m3EDYzJwYS5hc3NlcnRpb25zAAAAALxqdW1iAAAARGp1bWRjYm9yABEAEIAAAKoAOJtxE2MycGEuaW5ncmVkaWVudC52MwAAAAAYYzJzaFQz6/VBKNGzNuW5JxbasrgAAABwY2JvcqNpZGM6Zm9ybWF0bWltYWdlL3N2Zyt4bWxqaW5zdGFuY2VJRHgseG1wOmlpZDo1NmIzM2QxYy1iYWVkLTQxNWUtYmNiMi0zZWYzMzUzNzk4NTBscmVsYXRpb25zaGlwaHBhcmVudE9mAAAB4mp1bWIAAABBanVtZGNib3IAEQAQgAAAqgA4m3ETYzJwYS5hY3Rpb25zLnYyAAAAABhjMnNorjxeGq0TcyULa/vHdD1CaAAAAZljYm9yomdhY3Rpb25zgqJmYWN0aW9ua2MycGEub3BlbmVkanBhcmFtZXRlcnOha2luZ3JlZGllbnRzgaJjdXJseC1zZWxmI2p1bWJmPWMycGEuYXNzZXJ0aW9ucy9jMnBhLmluZ3JlZGllbnQudjNkaGFzaFggLSbAaLCWy6jGBOupm+7aDsihccvQiCUFLdP13EnXlVGkZmFjdGlvbngdY29tLmFudGhyb3BpYy5jbGF1ZGUucHJvdmlkZWRqcGFyYW1ldGVyc6F4H2NvbS5hbnRocm9waWMub3JpZ2luLWNvbmZpZGVuY2VndW5rbm93bmtkZXNjcmlwdGlvbnhmQ2xhdWRlIHByb3ZpZGVkIHRoaXMgZmlsZSBhdCB0aGUgcmVxdWVzdCBvZiBhIHVzZXIgYW5kIG1heSBoYXZlIGNyZWF0ZWQgb3IgbW9kaWZpZWQgdGhlIGZpbGUgY29udGVudHMubXNvZnR3YXJlQWdlbnShZG5hbWVmQ2xhdWRlcmFsbEFjdGlvbnNJbmNsdWRlZPUAAADIanVtYgAAAEBqdW1kY2JvcgARABCAAACqADibcRNjMnBhLmhhc2guZGF0YQAAAAAYYzJzaOjBAj9s5hU/khQiQ8PZCIYAAACAY2JvcqVjYWxnZnNoYTI1NmNwYWRNAAAAAAAAAAAAAAAAAGRoYXNoWCCC6GVyGZvsM9LVniueOAmYe38IsoG5cQ62cYMENnx4VmRuYW1lbmp1bWJmIG1hbmlmZXN0amV4Y2x1c2lvbnOBomVzdGFydBijZmxlbmd0aBkeBAAAAj5qdW1iAAAAJ2p1bWRjMmNsABEAEIAAAKoAOJtxA2MycGEuY2xhaW0udjIAAAACD2Nib3KlY2FsZ2ZzaGEyNTZpc2lnbmF0dXJleE1zZWxmI2p1bWJmPS9jMnBhL3VybjpjMnBhOjNjMGQ0NzIwLTYzYmMtNDcyNi1hNjFjLWZjOWU0NmU1ZWFjZi9jMnBhLnNpZ25hdHVyZWppbnN0YW5jZUlEeCx4bXA6aWlkOmFkNjY1MWExLWJjOGEtNGRlMC05YmVkLTYzMjJjZjczNDBjNHJjcmVhdGVkX2Fzc2VydGlvbnODomN1cmx4LXNlbGYjanVtYmY9YzJwYS5hc3NlcnRpb25zL2MycGEuaW5ncmVkaWVudC52M2RoYXNoWCAtJsBosJbLqMYE66mb7toOyKFxy9CIJQUt0/XcSdeVUaJjdXJseCpzZWxmI2p1bWJmPWMycGEuYXNzZXJ0aW9ucy9jMnBhLmFjdGlvbnMudjJkaGFzaFgg5AxIbMWnNIG778mGs9fv6I01DCqSvzsSSeBjXJxmGieiY3VybHgpc2VsZiNqdW1iZj1jMnBhLmFzc2VydGlvbnMvYzJwYS5oYXNoLmRhdGFkaGFzaFgg36egHUeVtHZefr88EXx67u4gg09/BQmtpX/bP9cLiKF0Y2xhaW1fZ2VuZXJhdG9yX2luZm+jZG5hbWVvQW50aHJvcGljIEZpbGVzZ3ZlcnNpb25lMS4wLjBrc3BlY1ZlcnNpb25lMi40LjAAABA4anVtYgAAAChqdW1kYzJjcwARABCAAACqADibcQNjMnBhLnNpZ25hdHVyZQAAABAIY2JvctKEWQISogEmGCFZAgowggIGMIIBjaADAgECAhRA5aAK7sI50L64g/oGQgU9Z1UTADAKBggqhkjOPQQDAzBJMRcwFQYDVQQKEw5BbnRocm9waWMsIFBCQzEuMCwGA1UEAxMlQW50aHJvcGljIENvbnRlbnQgQ3JlZGVudGlhbHMgUm9vdCBDQTAeFw0yNjA4MDcxODQzNTZaFw0yODA4MDYxOTQzNTZaMEQxFzAVBgNVBAoTDkFudGhyb3BpYywgUEJDMSkwJwYDVQQDEyBBbnRocm9waWMgQ2xhdWRlIENvbnRlbnQgU2lnbmluZzBZMBMGByqGSM49AgEGCCqGSM49AwEHA0IABJh6CmvLUBgFFNU0vUKlOVtE6djd17L5SuwX0LemFisBM3dkd/3cyjxFA3Qo5S46fX0/ihY0VZ7mfb9KF703t5OjWDBWMA4GA1UdDwEB/wQEAwIHgDAVBgNVHSUEDjAMBgorBgEEAYPoXgIBMAwGA1UdEwEB/wQCMAAwHwYDVR0jBBgwFoAUzlHiBIFOZFsj+OPEz5o+nMHXXMIwCgYIKoZIzj0EAwMDZwAwZAIwMXMdFJ4BetLLVY7ORuE9noqbbAZOZn/aArXyTwFAZfKrPzxF2vPoJNf1+UCdg1XGAjBwX1zd9WGqYkqmL5SFqw1QySjr1zJfpJM9+1rdDwSPLMOPOjKuiXjoU/pUUeG9RwmhY3BhZFkNngAAAAAAAAAAAAAAAAAAAAAAAAAAAAAAAAAAAAAAAAAAAAAAAAAAAAAAAAAAAAAAAAAAAAAAAAAAAAAAAAAAAAAAAAAAAAAAAAAAAAAAAAAAAAAAAAAAAAAAAAAAAAAAAAAAAAAAAAAAAAAAAAAAAAAAAAAAAAAAAAAAAAAAAAAAAAAAAAAAAAAAAAAAAAAAAAAAAAAAAAAAAAAAAAAAAAAAAAAAAAAAAAAAAAAAAAAAAAAAAAAAAAAAAAAAAAAAAAAAAAAAAAAAAAAAAAAAAAAAAAAAAAAAAAAAAAAAAAAAAAAAAAAAAAAAAAAAAAAAAAAAAAAAAAAAAAAAAAAAAAAAAAAAAAAAAAAAAAAAAAAAAAAAAAAAAAAAAAAAAAAAAAAAAAAAAAAAAAAAAAAAAAAAAAAAAAAAAAAAAAAAAAAAAAAAAAAAAAAAAAAAAAAAAAAAAAAAAAAAAAAAAAAAAAAAAAAAAAAAAAAAAAAAAAAAAAAAAAAAAAAAAAAAAAAAAAAAAAAAAAAAAAAAAAAAAAAAAAAAAAAAAAAAAAAAAAAAAAAAAAAAAAAAAAAAAAAAAAAAAAAAAAAAAAAAAAAAAAAAAAAAAAAAAAAAAAAAAAAAAAAAAAAAAAAAAAAAAAAAAAAAAAAAAAAAAAAAAAAAAAAAAAAAAAAAAAAAAAAAAAAAAAAAAAAAAAAAAAAAAAAAAAAAAAAAAAAAAAAAAAAAAAAAAAAAAAAAAAAAAAAAAAAAAAAAAAAAAAAAAAAAAAAAAAAAAAAAAAAAAAAAAAAAAAAAAAAAAAAAAAAAAAAAAAAAAAAAAAAAAAAAAAAAAAAAAAAAAAAAAAAAAAAAAAAAAAAAAAAAAAAAAAAAAAAAAAAAAAAAAAAAAAAAAAAAAAAAAAAAAAAAAAAAAAAAAAAAAAAAAAAAAAAAAAAAAAAAAAAAAAAAAAAAAAAAAAAAAAAAAAAAAAAAAAAAAAAAAAAAAAAAAAAAAAAAAAAAAAAAAAAAAAAAAAAAAAAAAAAAAAAAAAAAAAAAAAAAAAAAAAAAAAAAAAAAAAAAAAAAAAAAAAAAAAAAAAAAAAAAAAAAAAAAAAAAAAAAAAAAAAAAAAAAAAAAAAAAAAAAAAAAAAAAAAAAAAAAAAAAAAAAAAAAAAAAAAAAAAAAAAAAAAAAAAAAAAAAAAAAAAAAAAAAAAAAAAAAAAAAAAAAAAAAAAAAAAAAAAAAAAAAAAAAAAAAAAAAAAAAAAAAAAAAAAAAAAAAAAAAAAAAAAAAAAAAAAAAAAAAAAAAAAAAAAAAAAAAAAAAAAAAAAAAAAAAAAAAAAAAAAAAAAAAAAAAAAAAAAAAAAAAAAAAAAAAAAAAAAAAAAAAAAAAAAAAAAAAAAAAAAAAAAAAAAAAAAAAAAAAAAAAAAAAAAAAAAAAAAAAAAAAAAAAAAAAAAAAAAAAAAAAAAAAAAAAAAAAAAAAAAAAAAAAAAAAAAAAAAAAAAAAAAAAAAAAAAAAAAAAAAAAAAAAAAAAAAAAAAAAAAAAAAAAAAAAAAAAAAAAAAAAAAAAAAAAAAAAAAAAAAAAAAAAAAAAAAAAAAAAAAAAAAAAAAAAAAAAAAAAAAAAAAAAAAAAAAAAAAAAAAAAAAAAAAAAAAAAAAAAAAAAAAAAAAAAAAAAAAAAAAAAAAAAAAAAAAAAAAAAAAAAAAAAAAAAAAAAAAAAAAAAAAAAAAAAAAAAAAAAAAAAAAAAAAAAAAAAAAAAAAAAAAAAAAAAAAAAAAAAAAAAAAAAAAAAAAAAAAAAAAAAAAAAAAAAAAAAAAAAAAAAAAAAAAAAAAAAAAAAAAAAAAAAAAAAAAAAAAAAAAAAAAAAAAAAAAAAAAAAAAAAAAAAAAAAAAAAAAAAAAAAAAAAAAAAAAAAAAAAAAAAAAAAAAAAAAAAAAAAAAAAAAAAAAAAAAAAAAAAAAAAAAAAAAAAAAAAAAAAAAAAAAAAAAAAAAAAAAAAAAAAAAAAAAAAAAAAAAAAAAAAAAAAAAAAAAAAAAAAAAAAAAAAAAAAAAAAAAAAAAAAAAAAAAAAAAAAAAAAAAAAAAAAAAAAAAAAAAAAAAAAAAAAAAAAAAAAAAAAAAAAAAAAAAAAAAAAAAAAAAAAAAAAAAAAAAAAAAAAAAAAAAAAAAAAAAAAAAAAAAAAAAAAAAAAAAAAAAAAAAAAAAAAAAAAAAAAAAAAAAAAAAAAAAAAAAAAAAAAAAAAAAAAAAAAAAAAAAAAAAAAAAAAAAAAAAAAAAAAAAAAAAAAAAAAAAAAAAAAAAAAAAAAAAAAAAAAAAAAAAAAAAAAAAAAAAAAAAAAAAAAAAAAAAAAAAAAAAAAAAAAAAAAAAAAAAAAAAAAAAAAAAAAAAAAAAAAAAAAAAAAAAAAAAAAAAAAAAAAAAAAAAAAAAAAAAAAAAAAAAAAAAAAAAAAAAAAAAAAAAAAAAAAAAAAAAAAAAAAAAAAAAAAAAAAAAAAAAAAAAAAAAAAAAAAAAAAAAAAAAAAAAAAAAAAAAAAAAAAAAAAAAAAAAAAAAAAAAAAAAAAAAAAAAAAAAAAAAAAAAAAAAAAAAAAAAAAAAAAAAAAAAAAAAAAAAAAAAAAAAAAAAAAAAAAAAAAAAAAAAAAAAAAAAAAAAAAAAAAAAAAAAAAAAAAAAAAAAAAAAAAAAAAAAAAAAAAAAAAAAAAAAAAAAAAAAAAAAAAAAAAAAAAAAAAAAAAAAAAAAAAAAAAAAAAAAAAAAAAAAAAAAAAAAAAAAAAAAAAAAAAAAAAAAAAAAAAAAAAAAAAAAAAAAAAAAAAAAAAAAAAAAAAAAAAAAAAAAAAAAAAAAAAAAAAAAAAAAAAAAAAAAAAAAAAAAAAAAAAAAAAAAAAAAAAAAAAAAAAAAAAAAAAAAAAAAAAAAAAAAAAAAAAAAAAAAAAAAAAAAAAAAAAAAAAAAAAAAAAAAAAAAAAAAAAAAAAAAAAAAAAAAAAAAAAAAAAAAAAAAAAAAAAAAAAAAAAAAAAAAAAAAAAAAAAAAAAAAAAAAAAAAAAAAAAAAAAAAAAAAAAAAAAAAAAAAAAAAAAAAAAAAAAAAAAAAAAAAAAAAAAAAAAAAAAAAAAAAAAAAAAAAAAAAAAAAAAAAAAAAAAAAAAAAAAAAAAAAAAAAAAAAAAAAAAAAAAAAAAAAAAAAAAAAAAAAAAAAAAAAAAAAAAAAAAAAAAAAAAAAAAAAAAAAAAAAAAAAAAAAAAAAAAAAAAAAAAAAAAAAAAAAAAAAAAAAAAAAAAAAAAAAAAAAAAAAAAAAAAAAAAAAAAAAAAAAAAAAAAAAAAAAAAAAAAAAAAAAAAAAAAAAAAAAAAAAAAAAAAAAAAAAAAAAAAAAAAAAAAAAAAAAAAAAAAAAAAAAAAAAAAAAAAAAAAAAAAAAAAAAAAAAAAAAAAAAAAAAAAAAAAAAAAAAAAAAAAAAAAAAAAAAAAAAAAAAAAAAAAAAAAAAAAAAAAAAAAAAAAAAAAAAAAAAAAAAAAAAAAAAAAAAAAAAAAAAAAAAAAAAAAAAAAAAAAAAAAAAAAAAAAAAAAAAAAAAAAAAAAAAAAAAAAAAAAAAAAAAAAAAAAAAAAAAAAAAAAAAAAAAAAAAAAAAAAAAAAAAAAAAAAAAAAAAAAAAAAAAAAAAAAAAAAAAAAAAAAAAAAAAAAAAAAAAAAAAAAAAAAAAAAAAAAAAAAAAAAAAAAAAAAAAAAAAAAAAAAAAAAAAAAAAAAAAAAAAAAAAAAAAAAAAAAAAAAAAAAAAAAAAAAAAAAAAAAAAAAAAAAAAAAAAAAAAAAAAAAAAAAAAAAAAAAAAAAAAAAAAAAAAAAAAAAAAAAAAAAAAAAAAAAAAAAAAAAAAAAAAAAAAAAAAAAAAAAAAAAAAAAAAAAAAAAAAAAAAAAAAAAAAAAAAAAAAAAAAAAAAAAAAAAAAAAAAAAAAAAAAAAAAAAAAAAAAAAAAAAAAAAAAAAAAAAAAAAAAAAAAAAAAAAAAAAAAAAAAAAAAAAAAAAAAAAAAAAAAAAAAAAAAAAAAAAAAAAAAAAAAAAAAAAAAAAAAAAAAAAAAAAAAAAAAAAAAAAAAAAAAAAAAAAAAAAAAAAAAAAAAAAAAAAAAAAAAAAAAAAAAAAAAAAAAAAAAAAAAAAAAAAAAAAAAAAAAAAAAAAAAAAAAAAAAAAAAAAAAAAAAAAAAAAAAAAAAAAAAAAAAAAAAAAAAAAAAAAAAAAAAAAAAAAAAAAAAAAAAAAAAAAAAAAAAAAAAAAAAAAAAAAAAAAAAAAAAAAAAAAAAAAAAAAAAAAAAAAAAAAAAAAAAAAAAAAAAAAAAAAAAAAAAAAAAAAAAAAAAAAAAAAAAAAAAAAAAAAAAAAAAAAAAAAAAAAAAAAAAAAAAAAAAAAAAAAAAAAAAAAAAAAAAAAAAAAAAAAAAAAAAAAAAAAAAAAAAAAAAAAAAAAAAAAAAAAAAAAAAAAAAAAAAAAAAAAAAAAAAAAAAAAAAAAAAAAAAAAAAAAAAAAAAAAAAAAAAAAAAAAAAAAAAAAAAAAAAAAAAAAAAAAAAAAAAAAAAAAAAAAAAAAAAAAAAAAAAAAAAAAAAAAAAAAAAAAAAAAAAAAAAAAAAAAAAAAAAAAAAAAAAAAAAAAAAAAAAAAAAAAAAAAAAAAAAAAAPZYQADbG6lfELCD5PYSteESkiwESOQfVT4xy1CMD1Qva2kpu1t4BM8MQRie0U1dDr3rtMmWHb/gkk/1fFvENmJ+4Ck=</c2pa:manifest></metadata>
<style>
.tw{animation:tw 5s ease-in-out infinite}
@keyframes tw{0%,100%{opacity:.2}50%{opacity:1}}
</style>
<defs>
<linearGradient id="bg" x1="0" y1="0" x2="1" y2="1"><stop offset="0" stop-color="#01020a"/><stop offset="1" stop-color="#0a1226"/></linearGradient>
<radialGradient id="nebV" cx=".5" cy=".5" r=".5"><stop offset="0" stop-color="#6d4cff" stop-opacity=".32"/><stop offset="1" stop-color="#6d4cff" stop-opacity="0"/></radialGradient>
<radialGradient id="nebB" cx=".5" cy=".5" r=".5"><stop offset="0" stop-color="#1e6fff" stop-opacity=".28"/><stop offset="1" stop-color="#1e6fff" stop-opacity="0"/></radialGradient>
<radialGradient id="nebA" cx=".5" cy=".5" r=".5"><stop offset="0" stop-color="#ff9a2e" stop-opacity=".30"/><stop offset="1" stop-color="#ff9a2e" stop-opacity="0"/></radialGradient>
<linearGradient id="ring" x1="0" y1="0" x2="1" y2="0"><stop offset="0" stop-color="#ff8a1f" stop-opacity=".15"/><stop offset=".5" stop-color="#ffe2b0"/><stop offset="1" stop-color="#ff8a1f" stop-opacity=".15"/></linearGradient>
<linearGradient id="line" x1="0" y1="0" x2="1" y2="0"><stop offset="0" stop-color="#7dd3fc"/><stop offset=".6" stop-color="#7dd3fc" stop-opacity=".15"/><stop offset="1" stop-color="#7dd3fc" stop-opacity="0"/></linearGradient>
<filter id="glow" x="-30%" y="-30%" width="160%" height="160%"><feGaussianBlur stdDeviation="4"/></filter>
<filter id="soft" x="-50%" y="-50%" width="200%" height="200%"><feGaussianBlur stdDeviation="14"/></filter>
</defs>
<rect width="1200" height="420" fill="url(#bg)"/>

<ellipse cx="250" cy="90" rx="380" ry="170" fill="url(#nebV)"/>
<ellipse cx="620" cy="380" rx="420" ry="150" fill="url(#nebB)"/>
<circle cx="388.6" cy="63.4" r="1.5" fill="#ffffff" opacity="0.28"/>
<circle class="tw" cx="69.6" cy="213.1" r="0.5" fill="#fff1cf" style="animation-delay:-0.5s"/>
<circle cx="509.4" cy="347.3" r="0.5" fill="#ffffff" opacity="0.87"/>
<circle cx="476.0" cy="410.0" r="0.5" fill="#ffffff" opacity="0.61"/>
<circle class="tw" cx="173.1" cy="49.5" r="0.7" fill="#ffffff" style="animation-delay:-2.9s"/>
<circle cx="225.4" cy="40.9" r="1.5" fill="#ffffff" opacity="0.29"/>
<circle cx="595.7" cy="223.3" r="0.7" fill="#fff1cf" opacity="0.55"/>
<circle cx="298.1" cy="75.5" r="0.6" fill="#cfe6ff" opacity="0.30"/>
<circle class="tw" cx="1050.2" cy="306.4" r="0.7" fill="#ffffff" style="animation-delay:-2.1s"/>
<circle cx="908.6" cy="63.8" r="0.9" fill="#ffffff" opacity="0.52"/>
<circle cx="687.6" cy="367.7" r="0.7" fill="#cfe6ff" opacity="0.47"/>
<circle cx="695.9" cy="191.6" r="0.5" fill="#fff1cf" opacity="0.86"/>
<circle cx="78.0" cy="307.1" r="0.7" fill="#fff1cf" opacity="0.67"/>
<circle class="tw" cx="462.9" cy="280.8" r="0.5" fill="#cfe6ff" style="animation-delay:-0.6s"/>
<circle cx="70.7" cy="322.7" r="0.6" fill="#fff1cf" opacity="0.73"/>
<circle cx="1045.7" cy="33.8" r="0.9" fill="#cfe6ff" opacity="0.51"/>
<circle cx="983.1" cy="362.9" r="0.7" fill="#cfe6ff" opacity="0.71"/>
<circle cx="456.5" cy="96.9" r="0.5" fill="#ffffff" opacity="0.36"/>
<circle class="tw" cx="14.5" cy="349.1" r="0.6" fill="#ffffff" style="animation-delay:-2.7s"/>
<circle cx="731.8" cy="133.8" r="0.6" fill="#ffffff" opacity="0.70"/>
<circle cx="1045.2" cy="399.8" r="1.5" fill="#fff1cf" opacity="0.77"/>
<circle cx="472.9" cy="202.2" r="0.9" fill="#ffffff" opacity="0.29"/>
<circle cx="528.8" cy="46.2" r="1.1" fill="#ffffff" opacity="0.28"/>
<circle cx="643.9" cy="398.6" r="1.1" fill="#ffffff" opacity="0.27"/>
<circle class="tw" cx="178.3" cy="105.9" r="0.7" fill="#fff1cf" style="animation-delay:-4.2s"/>
<circle class="tw" cx="1191.7" cy="195.7" r="0.9" fill="#ffffff" style="animation-delay:-1.7s"/>
<circle cx="317.7" cy="348.1" r="0.6" fill="#ffffff" opacity="0.59"/>
<circle cx="633.9" cy="61.6" r="1.1" fill="#cfe6ff" opacity="0.84"/>
<circle cx="1036.0" cy="292.4" r="0.7" fill="#ffffff" opacity="0.59"/>
<circle cx="267.4" cy="227.5" r="1.1" fill="#ffffff" opacity="0.46"/>
<circle cx="946.1" cy="318.5" r="0.6" fill="#fff1cf" opacity="0.77"/>
<circle cx="272.1" cy="217.4" r="0.7" fill="#ffffff" opacity="0.73"/>
<circle cx="566.7" cy="81.3" r="1.1" fill="#fff1cf" opacity="0.87"/>
<circle cx="867.8" cy="146.8" r="0.7" fill="#ffffff" opacity="0.30"/>
<circle cx="236.0" cy="85.8" r="1.1" fill="#ffffff" opacity="0.89"/>
<circle cx="783.6" cy="335.9" r="0.5" fill="#ffffff" opacity="0.79"/>
<circle cx="938.8" cy="315.1" r="0.9" fill="#fff1cf" opacity="0.83"/>
<circle cx="399.0" cy="336.3" r="1.5" fill="#fff1cf" opacity="0.51"/>
<circle cx="101.9" cy="66.7" r="0.6" fill="#fff1cf" opacity="0.27"/>
<circle class="tw" cx="175.4" cy="347.1" r="0.9" fill="#cfe6ff" style="animation-delay:-2.7s"/>
<circle cx="25.7" cy="335.7" r="1.5" fill="#ffffff" opacity="0.67"/>
<circle cx="1046.1" cy="347.0" r="0.6" fill="#ffffff" opacity="0.27"/>
<circle class="tw" cx="288.6" cy="246.3" r="0.7" fill="#ffffff" style="animation-delay:-3.7s"/>
<circle cx="1077.2" cy="278.2" r="1.1" fill="#ffffff" opacity="0.52"/>
<circle cx="628.2" cy="7.9" r="0.9" fill="#ffffff" opacity="0.75"/>
<circle cx="179.8" cy="59.5" r="1.1" fill="#ffffff" opacity="0.72"/>
<circle cx="622.0" cy="233.3" r="0.5" fill="#ffffff" opacity="0.82"/>
<circle cx="332.3" cy="324.3" r="1.1" fill="#ffffff" opacity="0.54"/>
<circle cx="1095.0" cy="186.2" r="1.1" fill="#ffffff" opacity="0.88"/>
<circle cx="542.8" cy="224.0" r="0.9" fill="#ffffff" opacity="0.58"/>
<circle cx="1051.8" cy="395.7" r="0.7" fill="#ffffff" opacity="0.85"/>
<circle cx="164.6" cy="51.1" r="0.9" fill="#ffffff" opacity="0.46"/>
<circle cx="255.2" cy="127.2" r="0.5" fill="#ffffff" opacity="0.83"/>
<circle class="tw" cx="772.1" cy="153.8" r="0.7" fill="#fff1cf" style="animation-delay:-4.8s"/>
<circle cx="477.9" cy="204.6" r="1.5" fill="#ffffff" opacity="0.79"/>
<circle class="tw" cx="1192.9" cy="169.6" r="0.9" fill="#cfe6ff" style="animation-delay:-1.8s"/>
<circle cx="405.6" cy="192.6" r="1.5" fill="#cfe6ff" opacity="0.26"/>
<circle cx="354.5" cy="403.5" r="0.5" fill="#ffffff" opacity="0.89"/>
<circle cx="125.7" cy="111.5" r="0.5" fill="#ffffff" opacity="0.84"/>
<circle cx="155.5" cy="177.3" r="1.5" fill="#cfe6ff" opacity="0.78"/>
<circle cx="643.9" cy="216.2" r="0.9" fill="#ffffff" opacity="0.71"/>
<circle cx="959.5" cy="77.0" r="0.5" fill="#ffffff" opacity="0.42"/>
<circle cx="962.0" cy="35.2" r="0.6" fill="#ffffff" opacity="0.29"/>
<circle cx="407.0" cy="232.3" r="0.7" fill="#ffffff" opacity="0.65"/>
<circle class="tw" cx="286.1" cy="46.0" r="0.6" fill="#ffffff" style="animation-delay:-1.6s"/>
<circle cx="366.0" cy="319.0" r="0.7" fill="#ffffff" opacity="0.54"/>
<circle cx="964.4" cy="417.7" r="0.5" fill="#ffffff" opacity="0.26"/>
<circle cx="294.8" cy="187.8" r="1.5" fill="#fff1cf" opacity="0.78"/>
<circle cx="655.1" cy="373.3" r="1.1" fill="#ffffff" opacity="0.45"/>
<circle cx="411.2" cy="349.6" r="1.5" fill="#ffffff" opacity="0.72"/>
<circle cx="417.1" cy="22.8" r="0.6" fill="#cfe6ff" opacity="0.26"/>
<circle cx="66.5" cy="279.4" r="0.9" fill="#cfe6ff" opacity="0.82"/>
<circle class="tw" cx="831.2" cy="19.0" r="0.6" fill="#fff1cf" style="animation-delay:-1.8s"/>
<circle class="tw" cx="394.7" cy="413.7" r="0.7" fill="#cfe6ff" style="animation-delay:-0.9s"/>
<circle cx="402.4" cy="35.2" r="0.7" fill="#ffffff" opacity="0.58"/>
<circle cx="931.5" cy="38.2" r="0.5" fill="#ffffff" opacity="0.34"/>
<circle cx="359.6" cy="264.5" r="0.5" fill="#ffffff" opacity="0.63"/>
<circle class="tw" cx="859.2" cy="369.2" r="0.9" fill="#fff1cf" style="animation-delay:-3.6s"/>
<circle cx="771.9" cy="18.4" r="1.5" fill="#fff1cf" opacity="0.83"/>
<circle cx="974.7" cy="58.5" r="1.1" fill="#ffffff" opacity="0.74"/>
<circle class="tw" cx="700.9" cy="375.0" r="1.5" fill="#ffffff" style="animation-delay:-0.2s"/>
<circle cx="764.5" cy="403.0" r="0.9" fill="#ffffff" opacity="0.79"/>
<circle cx="751.5" cy="285.9" r="0.9" fill="#fff1cf" opacity="0.42"/>
<circle cx="897.9" cy="211.2" r="1.1" fill="#ffffff" opacity="0.31"/>
<circle cx="568.6" cy="339.9" r="0.7" fill="#ffffff" opacity="0.40"/>
<circle cx="779.9" cy="193.3" r="0.9" fill="#cfe6ff" opacity="0.30"/>
<circle cx="740.4" cy="270.0" r="0.5" fill="#cfe6ff" opacity="0.64"/>
<circle class="tw" cx="891.9" cy="127.9" r="1.1" fill="#fff1cf" style="animation-delay:-1.3s"/>
<circle cx="806.4" cy="290.7" r="1.5" fill="#cfe6ff" opacity="0.57"/>
<circle cx="559.6" cy="49.8" r="1.1" fill="#ffffff" opacity="0.38"/>
<circle cx="21.0" cy="192.8" r="1.1" fill="#fff1cf" opacity="0.88"/>
<circle class="tw" cx="464.2" cy="385.0" r="0.6" fill="#ffffff" style="animation-delay:-2.6s"/>
<circle cx="1143.3" cy="55.7" r="1.5" fill="#ffffff" opacity="0.58"/>
<circle class="tw" cx="277.7" cy="377.0" r="0.9" fill="#ffffff" style="animation-delay:-2.5s"/>
<circle cx="540.9" cy="126.8" r="0.6" fill="#fff1cf" opacity="0.52"/>
<circle cx="1008.3" cy="0.7" r="0.7" fill="#ffffff" opacity="0.80"/>
<circle class="tw" cx="234.9" cy="4.9" r="1.5" fill="#cfe6ff" style="animation-delay:-2.0s"/>
<circle cx="1044.0" cy="32.1" r="0.9" fill="#ffffff" opacity="0.74"/>
<circle cx="61.9" cy="278.0" r="1.5" fill="#ffffff" opacity="0.86"/>
<circle cx="523.5" cy="132.6" r="0.7" fill="#fff1cf" opacity="0.76"/>
<circle class="tw" cx="974.4" cy="265.0" r="1.1" fill="#ffffff" style="animation-delay:-3.7s"/>
<circle class="tw" cx="541.0" cy="316.1" r="1.5" fill="#fff1cf" style="animation-delay:-4.6s"/>
<circle cx="152.8" cy="198.3" r="0.7" fill="#cfe6ff" opacity="0.43"/>
<circle cx="1171.6" cy="109.3" r="1.5" fill="#fff1cf" opacity="0.41"/>
<circle cx="473.2" cy="70.3" r="0.6" fill="#fff1cf" opacity="0.30"/>
<circle cx="543.6" cy="139.8" r="0.9" fill="#ffffff" opacity="0.53"/>
<circle cx="209.6" cy="233.5" r="0.7" fill="#cfe6ff" opacity="0.41"/>
<circle cx="242.6" cy="8.4" r="0.9" fill="#ffffff" opacity="0.50"/>
<circle class="tw" cx="405.8" cy="26.1" r="0.7" fill="#cfe6ff" style="animation-delay:-2.5s"/>
<circle cx="755.6" cy="362.4" r="0.6" fill="#ffffff" opacity="0.31"/>
<circle class="tw" cx="775.0" cy="181.4" r="0.7" fill="#ffffff" style="animation-delay:-2.1s"/>
<circle cx="916.4" cy="337.8" r="1.1" fill="#ffffff" opacity="0.57"/>
<circle cx="1112.2" cy="346.7" r="0.9" fill="#ffffff" opacity="0.88"/>
<circle class="tw" cx="268.6" cy="63.9" r="1.5" fill="#fff1cf" style="animation-delay:-3.9s"/>
<circle cx="1.6" cy="52.8" r="1.1" fill="#cfe6ff" opacity="0.85"/>
<circle class="tw" cx="751.8" cy="221.9" r="0.9" fill="#ffffff" style="animation-delay:-1.5s"/>
<circle class="tw" cx="1132.2" cy="80.5" r="0.7" fill="#ffffff" style="animation-delay:-1.5s"/>
<circle cx="552.8" cy="402.8" r="1.5" fill="#ffffff" opacity="0.80"/>
<circle class="tw" cx="281.7" cy="103.8" r="0.9" fill="#cfe6ff" style="animation-delay:-1.0s"/>
<circle cx="1061.8" cy="271.8" r="0.5" fill="#fff1cf" opacity="0.42"/>
<circle cx="272.1" cy="14.3" r="0.7" fill="#cfe6ff" opacity="0.72"/>
<circle class="tw" cx="237.7" cy="334.8" r="1.5" fill="#ffffff" style="animation-delay:-4.8s"/>
<circle cx="374.1" cy="344.4" r="0.6" fill="#cfe6ff" opacity="0.55"/>
<circle cx="353.9" cy="399.8" r="0.9" fill="#ffffff" opacity="0.65"/>
<circle class="tw" cx="1092.5" cy="23.7" r="1.1" fill="#fff1cf" style="animation-delay:-0.1s"/>
<circle cx="715.4" cy="174.5" r="1.5" fill="#fff1cf" opacity="0.29"/>
<circle cx="854.4" cy="132.0" r="0.5" fill="#ffffff" opacity="0.90"/>
<circle cx="222.6" cy="393.1" r="1.5" fill="#cfe6ff" opacity="0.55"/>
<circle class="tw" cx="454.3" cy="157.0" r="0.7" fill="#ffffff" style="animation-delay:-1.4s"/>
<circle cx="421.8" cy="401.3" r="0.5" fill="#ffffff" opacity="0.61"/>
<circle class="tw" cx="922.5" cy="129.7" r="0.9" fill="#fff1cf" style="animation-delay:-2.7s"/>
<circle cx="535.6" cy="135.8" r="1.5" fill="#ffffff" opacity="0.83"/>
<circle cx="297.6" cy="262.7" r="0.9" fill="#ffffff" opacity="0.28"/>
<circle cx="964.0" cy="26.0" r="0.6" fill="#cfe6ff" opacity="0.74"/>
<circle cx="402.0" cy="400.6" r="0.5" fill="#cfe6ff" opacity="0.42"/>
<circle class="tw" cx="356.9" cy="303.1" r="1.1" fill="#ffffff" style="animation-delay:-1.2s"/>
<circle cx="570.2" cy="401.8" r="0.9" fill="#fff1cf" opacity="0.76"/>
<circle cx="159.2" cy="208.5" r="0.5" fill="#cfe6ff" opacity="0.77"/>
<circle cx="927.4" cy="255.0" r="0.7" fill="#fff1cf" opacity="0.81"/>
<circle cx="938.7" cy="33.2" r="0.6" fill="#ffffff" opacity="0.50"/>
<circle cx="77.7" cy="14.2" r="1.1" fill="#ffffff" opacity="0.60"/>
<circle class="tw" cx="1060.2" cy="414.9" r="0.7" fill="#ffffff" style="animation-delay:-2.5s"/>
<circle cx="851.7" cy="187.7" r="0.6" fill="#fff1cf" opacity="0.34"/>
<circle cx="808.9" cy="314.2" r="1.5" fill="#cfe6ff" opacity="0.74"/>
<circle cx="680.3" cy="156.6" r="1.5" fill="#fff1cf" opacity="0.42"/>
<circle cx="294.4" cy="64.4" r="1.1" fill="#ffffff" opacity="0.37"/>
<circle cx="1190.9" cy="213.1" r="0.6" fill="#ffffff" opacity="0.67"/>
<circle cx="1189.1" cy="43.0" r="0.9" fill="#ffffff" opacity="0.82"/>
<circle class="tw" cx="1097.3" cy="17.0" r="0.7" fill="#ffffff" style="animation-delay:-4.9s"/>
<circle cx="699.8" cy="390.7" r="0.7" fill="#ffffff" opacity="0.58"/>
<circle class="tw" cx="311.9" cy="326.7" r="0.5" fill="#cfe6ff" style="animation-delay:-1.8s"/>
<circle cx="169.6" cy="85.7" r="0.7" fill="#ffffff" opacity="0.27"/>
<circle class="tw" cx="982.6" cy="171.8" r="0.7" fill="#cfe6ff" style="animation-delay:-0.2s"/>
<circle cx="594.8" cy="203.1" r="0.9" fill="#fff1cf" opacity="0.32"/>
<circle cx="185.5" cy="224.3" r="1.5" fill="#cfe6ff" opacity="0.36"/>
<circle cx="340.0" cy="129.2" r="0.5" fill="#cfe6ff" opacity="0.45"/>
<circle cx="21.9" cy="322.0" r="0.7" fill="#fff1cf" opacity="0.67"/>
<circle cx="244.4" cy="2.5" r="0.6" fill="#ffffff" opacity="0.53"/>
<circle cx="1059.4" cy="193.6" r="0.6" fill="#ffffff" opacity="0.33"/>
<circle cx="768.8" cy="382.1" r="0.5" fill="#cfe6ff" opacity="0.62"/>
<circle class="tw" cx="206.0" cy="146.1" r="0.6" fill="#ffffff" style="animation-delay:-2.5s"/>
<circle cx="965.8" cy="406.1" r="0.6" fill="#ffffff" opacity="0.45"/>
<circle cx="579.3" cy="22.4" r="1.5" fill="#ffffff" opacity="0.50"/>
<circle class="tw" cx="1027.9" cy="260.8" r="1.1" fill="#fff1cf" style="animation-delay:-1.1s"/>
<circle cx="479.7" cy="217.5" r="0.9" fill="#ffffff" opacity="0.48"/>
<circle cx="869.9" cy="376.9" r="0.5" fill="#ffffff" opacity="0.82"/>
<circle cx="389.0" cy="163.7" r="0.9" fill="#cfe6ff" opacity="0.61"/>
<circle cx="369.9" cy="104.7" r="0.9" fill="#fff1cf" opacity="0.68"/>
<circle cx="214.5" cy="1.5" r="0.9" fill="#fff1cf" opacity="0.55"/>
<circle class="tw" cx="936.0" cy="192.5" r="0.6" fill="#fff1cf" style="animation-delay:-0.6s"/>
<circle class="tw" cx="516.7" cy="38.5" r="0.9" fill="#ffffff" style="animation-delay:-0.7s"/>
<circle cx="1106.6" cy="131.8" r="1.5" fill="#ffffff" opacity="0.58"/>
<circle cx="1073.8" cy="274.2" r="0.6" fill="#ffffff" opacity="0.27"/>
<circle cx="878.5" cy="342.3" r="0.6" fill="#fff1cf" opacity="0.34"/>
<circle class="tw" cx="973.2" cy="333.9" r="1.5" fill="#ffffff" style="animation-delay:-1.8s"/>
<circle class="tw" cx="907.4" cy="66.7" r="1.1" fill="#fff1cf" style="animation-delay:-2.5s"/>
<circle cx="1103.9" cy="87.5" r="0.7" fill="#ffffff" opacity="0.65"/>
<circle cx="44.2" cy="76.5" r="0.6" fill="#cfe6ff" opacity="0.66"/>
<circle cx="1074.5" cy="70.9" r="0.7" fill="#ffffff" opacity="0.32"/>
<circle cx="431.7" cy="366.6" r="1.1" fill="#ffffff" opacity="0.59"/>
<circle cx="642.8" cy="359.8" r="1.5" fill="#cfe6ff" opacity="0.77"/>
<circle cx="442.7" cy="61.4" r="0.7" fill="#fff1cf" opacity="0.75"/>
<circle cx="738.4" cy="402.4" r="0.7" fill="#cfe6ff" opacity="0.78"/>
<circle cx="1159.1" cy="365.5" r="1.5" fill="#ffffff" opacity="0.83"/>
<circle cx="266.0" cy="122.2" r="1.5" fill="#cfe6ff" opacity="0.53"/>
<circle class="tw" cx="158.4" cy="95.4" r="1.5" fill="#ffffff" style="animation-delay:-1.8s"/>
<circle cx="127.6" cy="150.0" r="0.6" fill="#cfe6ff" opacity="0.52"/>
<circle cx="245.0" cy="262.1" r="0.9" fill="#ffffff" opacity="0.35"/>
<circle cx="292.3" cy="62.7" r="0.5" fill="#ffffff" opacity="0.29"/>
<circle cx="938.6" cy="168.8" r="0.7" fill="#ffffff" opacity="0.88"/>
<circle cx="674.8" cy="147.1" r="1.5" fill="#fff1cf" opacity="0.63"/>
<circle cx="1084.2" cy="18.5" r="1.1" fill="#ffffff" opacity="0.27"/>
<circle class="tw" cx="70.1" cy="327.1" r="0.5" fill="#ffffff" style="animation-delay:-1.0s"/>
<circle cx="729.7" cy="212.9" r="1.5" fill="#ffffff" opacity="0.52"/>
<circle cx="76.5" cy="262.9" r="1.5" fill="#ffffff" opacity="0.76"/>
<circle class="tw" cx="524.0" cy="383.1" r="0.5" fill="#fff1cf" style="animation-delay:-5.0s"/>
<circle cx="313.7" cy="270.5" r="0.5" fill="#cfe6ff" opacity="0.47"/>
<circle cx="319.2" cy="232.6" r="0.9" fill="#cfe6ff" opacity="0.70"/>
<circle class="tw" cx="1114.3" cy="375.6" r="0.5" fill="#ffffff" style="animation-delay:-4.5s"/>
<circle class="tw" cx="1010.1" cy="85.2" r="0.6" fill="#cfe6ff" style="animation-delay:-1.9s"/>
<circle cx="721.5" cy="159.4" r="1.5" fill="#fff1cf" opacity="0.85"/>
<circle cx="636.7" cy="2.7" r="0.5" fill="#ffffff" opacity="0.53"/>
<circle class="tw" cx="369.3" cy="89.0" r="1.1" fill="#ffffff" style="animation-delay:-0.1s"/>
<circle class="tw" cx="128.0" cy="390.2" r="0.7" fill="#ffffff" style="animation-delay:-0.7s"/>
<circle cx="772.3" cy="17.9" r="0.5" fill="#ffffff" opacity="0.73"/>
<circle cx="914.1" cy="83.7" r="1.1" fill="#ffffff" opacity="0.83"/>
<circle class="tw" cx="906.9" cy="298.7" r="0.9" fill="#ffffff" style="animation-delay:-0.2s"/>
<circle cx="1139.1" cy="382.7" r="1.5" fill="#cfe6ff" opacity="0.31"/>
<circle cx="159.2" cy="332.6" r="1.5" fill="#cfe6ff" opacity="0.38"/>
<circle cx="313.4" cy="147.4" r="0.7" fill="#cfe6ff" opacity="0.28"/>
<circle cx="923.1" cy="252.8" r="0.9" fill="#ffffff" opacity="0.80"/>
<circle cx="37.5" cy="217.8" r="0.5" fill="#ffffff" opacity="0.48"/>
<circle class="tw" cx="259.9" cy="362.1" r="0.5" fill="#cfe6ff" style="animation-delay:-0.0s"/>
<circle class="tw" cx="242.4" cy="320.1" r="0.5" fill="#fff1cf" style="animation-delay:-3.5s"/>
<circle cx="990.4" cy="406.2" r="1.1" fill="#cfe6ff" opacity="0.48"/>
<circle class="tw" cx="190.7" cy="342.4" r="1.5" fill="#ffffff" style="animation-delay:-3.2s"/>
<circle cx="97.1" cy="330.9" r="1.5" fill="#ffffff" opacity="0.61"/>
<circle cx="426.7" cy="168.5" r="0.9" fill="#ffffff" opacity="0.83"/>
<circle cx="775.0" cy="156.2" r="0.7" fill="#ffffff" opacity="0.42"/>
<circle cx="1060.8" cy="98.1" r="0.9" fill="#ffffff" opacity="0.33"/>
<circle class="tw" cx="392.0" cy="65.2" r="0.9" fill="#cfe6ff" style="animation-delay:-2.2s"/>
<circle cx="928.1" cy="243.3" r="0.6" fill="#ffffff" opacity="0.47"/>
<circle cx="321.0" cy="317.0" r="1.1" fill="#ffffff" opacity="0.35"/>
<circle cx="867.8" cy="253.2" r="0.7" fill="#cfe6ff" opacity="0.35"/>
<circle class="tw" cx="310.4" cy="401.1" r="0.5" fill="#ffffff" style="animation-delay:-0.8s"/>
<circle class="tw" cx="178.0" cy="126.9" r="0.7" fill="#ffffff" style="animation-delay:-4.6s"/>
<circle cx="337.0" cy="371.8" r="0.9" fill="#fff1cf" opacity="0.27"/>
<circle class="tw" cx="523.8" cy="93.4" r="1.5" fill="#ffffff" style="animation-delay:-3.0s"/>
<circle cx="485.7" cy="311.2" r="0.9" fill="#fff1cf" opacity="0.71"/>
<circle cx="801.5" cy="274.0" r="1.5" fill="#ffffff" opacity="0.71"/>
<circle cx="769.8" cy="190.6" r="0.7" fill="#ffffff" opacity="0.42"/>
<circle cx="290.9" cy="168.1" r="1.5" fill="#cfe6ff" opacity="0.66"/>
<circle cx="579.3" cy="8.3" r="0.9" fill="#ffffff" opacity="0.59"/>
<circle class="tw" cx="393.7" cy="4.5" r="0.9" fill="#ffffff" style="animation-delay:-2.7s"/>
<circle cx="193.0" cy="328.4" r="0.6" fill="#ffffff" opacity="0.59"/>
<circle cx="548.1" cy="86.1" r="0.9" fill="#cfe6ff" opacity="0.58"/>
<circle cx="492.4" cy="398.1" r="0.6" fill="#ffffff" opacity="0.89"/>
<circle cx="915.2" cy="51.4" r="1.1" fill="#ffffff" opacity="0.48"/>
<circle cx="458.2" cy="25.8" r="0.5" fill="#fff1cf" opacity="0.52"/>
<circle cx="809.9" cy="243.7" r="0.5" fill="#fff1cf" opacity="0.40"/>
<circle class="tw" cx="632.5" cy="91.9" r="0.9" fill="#ffffff" style="animation-delay:-3.9s"/>
<circle cx="971.5" cy="266.4" r="0.9" fill="#ffffff" opacity="0.67"/>
<circle cx="175.5" cy="279.7" r="0.9" fill="#cfe6ff" opacity="0.55"/>
<circle cx="779.5" cy="327.5" r="0.9" fill="#ffffff" opacity="0.48"/>
<circle class="tw" cx="451.4" cy="106.5" r="0.9" fill="#fff1cf" style="animation-delay:-3.6s"/>
<circle cx="337.5" cy="102.9" r="0.7" fill="#fff1cf" opacity="0.46"/>
<circle cx="764.8" cy="276.9" r="0.7" fill="#cfe6ff" opacity="0.35"/>
<circle cx="68.5" cy="347.7" r="0.7" fill="#ffffff" opacity="0.76"/>
<circle cx="414.2" cy="244.6" r="1.5" fill="#ffffff" opacity="0.26"/>
<circle cx="300.0" cy="42.6" r="0.6" fill="#ffffff" opacity="0.81"/>
<circle cx="415.7" cy="64.1" r="0.9" fill="#ffffff" opacity="0.76"/>
<circle class="tw" cx="825.6" cy="410.4" r="0.5" fill="#cfe6ff" style="animation-delay:-3.5s"/>
<circle cx="637.0" cy="311.6" r="0.9" fill="#ffffff" opacity="0.69"/>
<circle cx="317.4" cy="98.4" r="0.6" fill="#ffffff" opacity="0.56"/>
<circle class="tw" cx="1086.6" cy="294.2" r="0.6" fill="#ffffff" style="animation-delay:-1.6s"/>
<circle cx="835.1" cy="209.0" r="0.7" fill="#cfe6ff" opacity="0.80"/>
<circle class="tw" cx="1199.9" cy="283.9" r="0.6" fill="#ffffff" style="animation-delay:-0.2s"/>
<circle cx="883.8" cy="419.6" r="0.5" fill="#fff1cf" opacity="0.58"/>
<circle class="tw" cx="173.4" cy="89.6" r="0.9" fill="#cfe6ff" style="animation-delay:-3.3s"/>
<circle cx="409.6" cy="327.0" r="1.1" fill="#ffffff" opacity="0.75"/>
<ellipse cx="960" cy="205" rx="330" ry="125" fill="none" stroke="#7dd3fc" stroke-opacity=".16" stroke-dasharray="3 7" transform="rotate(-14 960 205)"/>
<ellipse cx="960" cy="205" rx="440" ry="170" fill="none" stroke="#7dd3fc" stroke-opacity=".08" stroke-dasharray="2 9" transform="rotate(-14 960 205)"/>
<circle cx="664" cy="293" r="4" fill="#7dd3fc"/>
<circle cx="664" cy="293" r="9" fill="#7dd3fc" opacity=".2"/>
<circle cx="960" cy="205" r="166.4" fill="url(#nebA)"/>
<g transform="translate(960 205) rotate(-14)">
<path d="M -215 0 A 215 40 0 0 1 215 0" fill="none" stroke="url(#ring)" stroke-width="7" filter="url(#glow)" opacity=".9"/>
<path d="M -215 0 A 215 40 0 0 1 215 0" fill="none" stroke="url(#ring)" stroke-width="2.2"/>
</g>
<circle cx="960" cy="205" r="67" fill="none" stroke="#ffb866" stroke-opacity=".55" stroke-width="2" filter="url(#glow)"/>
<circle cx="960" cy="205" r="64" fill="#000"/>
<g transform="translate(960 205) rotate(-14)">
<path d="M -215 0 A 215 40 0 0 0 215 0" fill="none" stroke="url(#ring)" stroke-width="7" filter="url(#glow)" opacity=".9"/>
<path d="M -215 0 A 215 40 0 0 0 215 0" fill="none" stroke="url(#ring)" stroke-width="2.2"/>
</g>
<text x="80" y="140" font-family="'SFMono-Regular',Consolas,'Liberation Mono',monospace" font-size="15" letter-spacing="5" fill="#7dd3fc">BACKEND DEVELOPER</text>
<text x="76" y="232" font-family="'Segoe UI','Helvetica Neue',Arial,sans-serif" font-size="92" font-weight="800" letter-spacing="9" fill="#ffffff">RAJ NAIK</text>
<rect x="80" y="258" width="64" height="3" fill="#fbbf24"/>
<text x="80" y="302" font-family="'Segoe UI','Helvetica Neue',Arial,sans-serif" font-size="20" fill="#a9bbd6">Building reliable backend systems and learning how</text>
<text x="80" y="330" font-family="'Segoe UI','Helvetica Neue',Arial,sans-serif" font-size="20" fill="#a9bbd6">production software really works.</text>
<text x="80" y="386" font-family="'SFMono-Regular',Consolas,'Liberation Mono',monospace" font-size="12" letter-spacing="3" fill="#5f7394">NODE.JS  /  EXPRESS  /  POSTGRESQL  /  MONGODB  /  REST APIS</text>
<line x1="0" y1="419" x2="1200" y2="419" stroke="#7dd3fc" stroke-opacity=".25"/>

</svg>
